<svg width="43" height="68" viewBox="0 0 43 68" fill="none" xmlns="http://www.w3.org/2000/svg">
<path d="M16.5 52V52.5H17H41.5C42.0523 52.5 42.5 52.9477 42.5 53.5V66.5C42.5 67.0523 42.0523 67.5 41.5 67.5H17H1.5C0.947716 67.5 0.5 67.0523 0.5 66.5V28C0.5 27.4477 2.94772 28 3.5 28L8.5 29.5L14.5 33.5C15.0523 33.5 16 34 16.5 34V52Z" fill="#254664" stroke="#254664"/>
<path d="M0.971501 27.6441C0.790789 27.6232 0.632418 27.606 0.500001 27.5923L0.500008 25.1163L0.5 21.7674V1.5C0.5 0.947716 0.947715 0.5 1.5 0.5H15.5C16.0523 0.5 16.5 0.947716 16.5 1.5V21.7674V34.8302C16.0251 34.3886 15.379 33.8053 14.6341 33.1796C13.0668 31.8631 11.0193 30.3214 9.19696 29.5404C7.3902 28.7661 5.09205 28.2701 3.26938 27.9675C2.35331 27.8154 1.54807 27.7108 0.971501 27.6441Z" fill="white" stroke="#254664"/>
</svg>
