<svg width="118" height="68" viewBox="0 0 118 68" fill="none" xmlns="http://www.w3.org/2000/svg">
<g clip-path="url(#clip0_2336_10248)">
<path d="M54.9651 35.24C54.9651 35.56 54.9451 35.8933 54.9051 36.24H47.1651C47.2184 36.9333 47.4384 37.4667 47.8251 37.84C48.2251 38.2 48.7117 38.38 49.2851 38.38C50.1384 38.38 50.7317 38.02 51.0651 37.3H54.7051C54.5184 38.0333 54.1784 38.6933 53.6851 39.28C53.2051 39.8667 52.5984 40.3267 51.8651 40.66C51.1317 40.9933 50.3117 41.16 49.4051 41.16C48.3117 41.16 47.3384 40.9267 46.4851 40.46C45.6317 39.9933 44.9651 39.3267 44.4851 38.46C44.0051 37.5933 43.7651 36.58 43.7651 35.42C43.7651 34.26 43.9984 33.2467 44.4651 32.38C44.9451 31.5133 45.6117 30.8467 46.4651 30.38C47.3184 29.9133 48.2984 29.68 49.4051 29.68C50.4851 29.68 51.4451 29.9067 52.2851 30.36C53.1251 30.8133 53.7784 31.46 54.2451 32.3C54.7251 33.14 54.9651 34.12 54.9651 35.24ZM51.4651 34.34C51.4651 33.7533 51.2651 33.2867 50.8651 32.94C50.4651 32.5933 49.9651 32.42 49.3651 32.42C48.7917 32.42 48.3051 32.5867 47.9051 32.92C47.5184 33.2533 47.2784 33.7267 47.1851 34.34H51.4651ZM56.0893 35.4C56.0893 34.2533 56.3026 33.2467 56.7293 32.38C57.1693 31.5133 57.7626 30.8467 58.5093 30.38C59.256 29.9133 60.0893 29.68 61.0093 29.68C61.796 29.68 62.4826 29.84 63.0693 30.16C63.6693 30.48 64.1293 30.9 64.4493 31.42V29.84H67.8693V41H64.4493V39.42C64.116 39.94 63.6493 40.36 63.0493 40.68C62.4626 41 61.776 41.16 60.9893 41.16C60.0826 41.16 59.256 40.9267 58.5093 40.46C57.7626 39.98 57.1693 39.3067 56.7293 38.44C56.3026 37.56 56.0893 36.5467 56.0893 35.4ZM64.4493 35.42C64.4493 34.5667 64.2093 33.8933 63.7293 33.4C63.2626 32.9067 62.6893 32.66 62.0093 32.66C61.3293 32.66 60.7493 32.9067 60.2693 33.4C59.8026 33.88 59.5693 34.5467 59.5693 35.4C59.5693 36.2533 59.8026 36.9333 60.2693 37.44C60.7493 37.9333 61.3293 38.18 62.0093 38.18C62.6893 38.18 63.2626 37.9333 63.7293 37.44C64.2093 36.9467 64.4493 36.2733 64.4493 35.42ZM73.7635 31.7C74.1635 31.0867 74.6635 30.6067 75.2635 30.26C75.8635 29.9 76.5302 29.72 77.2635 29.72V33.34H76.3235C75.4702 33.34 74.8302 33.5267 74.4035 33.9C73.9768 34.26 73.7635 34.9 73.7635 35.82V41H70.3435V29.84H73.7635V31.7ZM85.6982 29.72C87.0049 29.72 88.0449 30.1467 88.8182 31C89.6049 31.84 89.9982 33 89.9982 34.48V41H86.5982V34.94C86.5982 34.1933 86.4049 33.6133 86.0182 33.2C85.6315 32.7867 85.1115 32.58 84.4582 32.58C83.8049 32.58 83.2849 32.7867 82.8982 33.2C82.5115 33.6133 82.3182 34.1933 82.3182 34.94V41H78.8982V29.84H82.3182V31.32C82.6649 30.8267 83.1315 30.44 83.7182 30.16C84.3049 29.8667 84.9649 29.72 85.6982 29.72ZM94.0948 28.68C93.4948 28.68 93.0014 28.5067 92.6148 28.16C92.2414 27.8 92.0548 27.36 92.0548 26.84C92.0548 26.3067 92.2414 25.8667 92.6148 25.52C93.0014 25.16 93.4948 24.98 94.0948 24.98C94.6814 24.98 95.1614 25.16 95.5348 25.52C95.9214 25.8667 96.1148 26.3067 96.1148 26.84C96.1148 27.36 95.9214 27.8 95.5348 28.16C95.1614 28.5067 94.6814 28.68 94.0948 28.68ZM95.7948 29.84V41H92.3748V29.84H95.7948ZM104.493 38.1V41H102.753C101.513 41 100.547 40.7 99.8532 40.1C99.1599 39.4867 98.8132 38.4933 98.8132 37.12V32.68H97.4532V29.84H98.8132V27.12H102.233V29.84H104.473V32.68H102.233V37.16C102.233 37.4933 102.313 37.7333 102.473 37.88C102.633 38.0267 102.9 38.1 103.273 38.1H104.493ZM117.798 29.84L110.798 46.3H107.118L109.678 40.62L105.138 29.84H108.958L111.538 36.82L114.098 29.84H117.798Z" fill="#254664"/>
<path d="M16.5 52V52.5H17H41.5C42.0523 52.5 42.5 52.9477 42.5 53.5V66.5C42.5 67.0523 42.0523 67.5 41.5 67.5H17H1.5C0.947716 67.5 0.5 67.0523 0.5 66.5V28C0.5 27.4477 2.94772 28 3.5 28L8.5 29.5L14.5 33.5C15.0523 33.5 16 34.6244 16.5 34.6243V52Z" fill="#254664" stroke="#254664"/>
<path d="M0.971501 27.6441C0.790789 27.6232 0.632418 27.606 0.500001 27.5923L0.500008 25.1163L0.5 21.7674V1.5C0.5 0.947716 0.947715 0.5 1.5 0.5H15.5C16.0523 0.5 16.5 0.947716 16.5 1.5V21.7674V34.8302C16.0251 34.3886 15.379 33.8053 14.6341 33.1796C13.0668 31.8631 11.0193 30.3214 9.19696 29.5404C7.3902 28.7661 5.09205 28.2701 3.26938 27.9675C2.35331 27.8154 1.54807 27.7108 0.971501 27.6441Z" stroke="#254664"/>
</g>
<defs>
<clipPath id="clip0_2336_10248">
<rect width="118" height="68" fill="white"/>
</clipPath>
</defs>
</svg>
