<svg width="16" height="16" viewBox="0 0 16 16" fill="none" xmlns="http://www.w3.org/2000/svg">
<rect width="16" height="16" rx="4" fill="#254664"/>
<mask id="mask0_422_2666" style="mask-type:alpha" maskUnits="userSpaceOnUse" x="0" y="0" width="16" height="16">
<rect width="16" height="16" fill="#1C1B1F"/>
</mask>
<g mask="url(#mask0_422_2666)">
<path d="M9.88571 10.6861L10.6857 9.88613L8.57143 7.77185V5.14328H7.42857V8.22899L9.88571 10.6861ZM8 13.7147C7.20952 13.7147 6.46667 13.5646 5.77143 13.2644C5.07619 12.9646 4.47143 12.5576 3.95714 12.0433C3.44286 11.529 3.03581 10.9242 2.736 10.229C2.43581 9.53375 2.28571 8.79089 2.28571 8.00042C2.28571 7.20994 2.43581 6.46709 2.736 5.77185C3.03581 5.07661 3.44286 4.47185 3.95714 3.95756C4.47143 3.44328 5.07619 3.03604 5.77143 2.73585C6.46667 2.43604 7.20952 2.28613 8 2.28613C8.79048 2.28613 9.53333 2.43604 10.2286 2.73585C10.9238 3.03604 11.5286 3.44328 12.0429 3.95756C12.5571 4.47185 12.9642 5.07661 13.264 5.77185C13.5642 6.46709 13.7143 7.20994 13.7143 8.00042C13.7143 8.79089 13.5642 9.53375 13.264 10.229C12.9642 10.9242 12.5571 11.529 12.0429 12.0433C11.5286 12.5576 10.9238 12.9646 10.2286 13.2644C9.53333 13.5646 8.79048 13.7147 8 13.7147ZM8 12.5718C9.26667 12.5718 10.3453 12.1267 11.236 11.2364C12.1263 10.3458 12.5714 9.26709 12.5714 8.00042C12.5714 6.73375 12.1263 5.65509 11.236 4.76442C10.3453 3.87413 9.26667 3.42899 8 3.42899C6.73333 3.42899 5.65486 3.87413 4.76457 4.76442C3.8739 5.65509 3.42857 6.73375 3.42857 8.00042C3.42857 9.26709 3.8739 10.3458 4.76457 11.2364C5.65486 12.1267 6.73333 12.5718 8 12.5718Z" fill="white"/>
</g>
</svg>
