<svg width="16" height="16" viewBox="0 0 16 16" fill="none" xmlns="http://www.w3.org/2000/svg">
<rect width="16" height="16" rx="4" fill="#254664"/>
<mask id="mask0_422_2686" style="mask-type:alpha" maskUnits="userSpaceOnUse" x="0" y="0" width="16" height="16">
<rect width="16" height="16" fill="#1C1B1F"/>
</mask>
<g mask="url(#mask0_422_2686)">
<path d="M6.28571 4.57157H7.42857V3.42871H6.28571V4.57157ZM8.57143 4.57157V3.42871H9.71429V4.57157H8.57143ZM6.28571 9.143V8.00014H7.42857V9.143H6.28571ZM10.8571 6.85728V5.71443H12V6.85728H10.8571ZM10.8571 9.143V8.00014H12V9.143H10.8571ZM8.57143 9.143V8.00014H9.71429V9.143H8.57143ZM10.8571 4.57157V3.42871H12V4.57157H10.8571ZM7.42857 5.71443V4.57157H8.57143V5.71443H7.42857ZM4 12.5716V3.42871H5.14286V4.57157H6.28571V5.71443H5.14286V6.85728H6.28571V8.00014H5.14286V12.5716H4ZM9.71429 8.00014V6.85728H10.8571V8.00014H9.71429ZM7.42857 8.00014V6.85728H8.57143V8.00014H7.42857ZM6.28571 6.85728V5.71443H7.42857V6.85728H6.28571ZM8.57143 6.85728V5.71443H9.71429V6.85728H8.57143ZM9.71429 5.71443V4.57157H10.8571V5.71443H9.71429Z" fill="white"/>
</g>
</svg>
